<svg width="95" height="14" viewBox="0 0 95 14" fill="none" xmlns="http://www.w3.org/2000/svg">
<path d="M3.55664 9.20898C3.81445 9.20898 4.05273 9.17578 4.27148 9.10938C4.49023 9.03906 4.67773 8.94141 4.83398 8.81641C4.99023 8.6875 5.11133 8.53516 5.19727 8.35938C5.28711 8.18359 5.33203 7.98828 5.33203 7.77344C5.33203 7.51953 5.27148 7.30469 5.15039 7.12891C5.0332 6.95312 4.87695 6.79883 4.68164 6.66602C4.49023 6.5332 4.26953 6.41602 4.01953 6.31445C3.76953 6.20898 3.51562 6.10352 3.25781 5.99805C3 5.88867 2.74609 5.77148 2.49609 5.64648C2.24609 5.52148 2.02344 5.36914 1.82812 5.18945C1.63672 5.00977 1.48047 4.79883 1.35938 4.55664C1.24219 4.31055 1.18359 4.01367 1.18359 3.66602C1.18359 3.29883 1.25391 2.96875 1.39453 2.67578C1.53516 2.38281 1.73047 2.13477 1.98047 1.93164C2.23438 1.72461 2.5332 1.56836 2.87695 1.46289C3.22461 1.35352 3.60547 1.29883 4.01953 1.29883C4.27344 1.29883 4.5918 1.32422 4.97461 1.375C5.35742 1.42188 5.76367 1.50977 6.19336 1.63867L6 2.6582L5.88281 2.7168C5.66797 2.61914 5.45898 2.53711 5.25586 2.4707C5.05273 2.4043 4.86133 2.35156 4.68164 2.3125C4.50195 2.27344 4.33594 2.24609 4.18359 2.23047C4.03125 2.21484 3.89844 2.20703 3.78516 2.20703C3.55469 2.20703 3.3457 2.23633 3.1582 2.29492C2.97461 2.34961 2.81641 2.43164 2.68359 2.54102C2.55469 2.64648 2.45312 2.77734 2.37891 2.93359C2.30859 3.08594 2.27344 3.25977 2.27344 3.45508C2.27344 3.7168 2.33203 3.93945 2.44922 4.12305C2.57031 4.30664 2.72852 4.46875 2.92383 4.60938C3.12305 4.75 3.34766 4.875 3.59766 4.98438C3.84766 5.09375 4.10156 5.20312 4.35938 5.3125C4.62109 5.42188 4.87695 5.53906 5.12695 5.66406C5.37695 5.78906 5.59961 5.93555 5.79492 6.10352C5.99414 6.26758 6.15234 6.46289 6.26953 6.68945C6.39062 6.91602 6.45117 7.1875 6.45117 7.50391C6.45117 7.85156 6.375 8.18359 6.22266 8.5C6.07422 8.8125 5.86328 9.08984 5.58984 9.33203C5.32031 9.57031 4.99414 9.76172 4.61133 9.90625C4.23242 10.0469 3.8125 10.1172 3.35156 10.1172C3.15625 10.1172 2.95117 10.1035 2.73633 10.0762C2.52539 10.0488 2.3125 10.0117 2.09766 9.96484C1.88281 9.91406 1.66992 9.85352 1.45898 9.7832C1.25195 9.71289 1.05469 9.63477 0.867188 9.54883L1.06641 8.52344L1.18359 8.46484C1.58203 8.69531 1.98438 8.87695 2.39062 9.00977C2.80078 9.14258 3.18945 9.20898 3.55664 9.20898ZM11.707 9.07422C11.6094 9.15625 11.4902 9.25781 11.3496 9.37891C11.2129 9.49609 11.0566 9.60938 10.8809 9.71875C10.709 9.82812 10.5195 9.92188 10.3125 10C10.1094 10.0781 9.89258 10.1172 9.66211 10.1172C9.45508 10.1172 9.25195 10.0801 9.05273 10.0059C8.85742 9.93555 8.68359 9.83008 8.53125 9.68945C8.37891 9.54492 8.25586 9.36719 8.16211 9.15625C8.07227 8.94531 8.02734 8.70312 8.02734 8.42969C8.02734 8.26172 8.04688 8.0918 8.08594 7.91992C8.12891 7.74805 8.19922 7.58398 8.29688 7.42773C8.39453 7.26758 8.52148 7.11914 8.67773 6.98242C8.83789 6.8418 9.0332 6.7207 9.26367 6.61914C9.49805 6.51367 9.77344 6.43164 10.0898 6.37305C10.4062 6.31445 10.7695 6.28516 11.1797 6.28516H11.707V5.74609C11.707 5.56641 11.6758 5.4043 11.6133 5.25977C11.5508 5.11523 11.4629 4.99219 11.3496 4.89062C11.2402 4.78516 11.1074 4.70508 10.9512 4.65039C10.7988 4.5918 10.6289 4.5625 10.4414 4.5625C10.3008 4.5625 10.1504 4.57812 9.99023 4.60938C9.83398 4.64062 9.67578 4.68555 9.51562 4.74414C9.35938 4.80273 9.20898 4.87109 9.06445 4.94922C8.91992 5.02734 8.79297 5.11328 8.68359 5.20703L8.57812 5.14844L8.34375 4.29297C8.57031 4.16797 8.78906 4.06641 9 3.98828C9.21094 3.90625 9.41211 3.8418 9.60352 3.79492C9.79883 3.74805 9.98438 3.7168 10.1602 3.70117C10.3359 3.68164 10.5039 3.67188 10.6641 3.67188C11.3945 3.67188 11.9355 3.82422 12.2871 4.12891C12.6426 4.42969 12.8203 4.88281 12.8203 5.48828V8.54688C12.8203 8.59766 12.8242 8.66016 12.832 8.73438C12.8398 8.80469 12.8574 8.87305 12.8848 8.93945C12.916 9.00586 12.959 9.0625 13.0137 9.10938C13.0723 9.15625 13.1504 9.17969 13.248 9.17969C13.3027 9.17969 13.375 9.17188 13.4648 9.15625C13.5547 9.13672 13.6445 9.10547 13.7344 9.0625V9.68359C13.5469 9.8125 13.3574 9.91797 13.166 10C12.9785 10.0781 12.7969 10.1172 12.6211 10.1172C12.4609 10.1172 12.3281 10.084 12.2227 10.0176C12.1211 9.95508 12.0352 9.87305 11.9648 9.77148C11.8984 9.66992 11.8457 9.55859 11.8066 9.4375C11.7676 9.3125 11.7344 9.19141 11.707 9.07422ZM11.707 6.96484H11.2617C10.8047 6.96484 10.4395 6.99805 10.166 7.06445C9.89648 7.12695 9.68945 7.21289 9.54492 7.32227C9.4043 7.42773 9.31055 7.55078 9.26367 7.69141C9.2207 7.83203 9.19922 7.97852 9.19922 8.13086C9.19922 8.29492 9.22266 8.44141 9.26953 8.57031C9.31641 8.69922 9.38086 8.81055 9.46289 8.9043C9.54883 8.99414 9.65039 9.0625 9.76758 9.10938C9.88477 9.15625 10.0117 9.17969 10.1484 9.17969C10.2539 9.17969 10.3613 9.16797 10.4707 9.14453C10.584 9.11719 10.7031 9.07227 10.8281 9.00977C10.957 8.94336 11.0918 8.85547 11.2324 8.74609C11.377 8.63672 11.5352 8.49609 11.707 8.32422V6.96484ZM15.0938 3.78906H15.9609L16.1367 4.86719C16.2734 4.73828 16.4297 4.60352 16.6055 4.46289C16.7812 4.32227 16.9707 4.19336 17.1738 4.07617C17.3809 3.95898 17.5996 3.86328 17.8301 3.78906C18.0605 3.71094 18.2969 3.67188 18.5391 3.67188C18.8242 3.67188 19.0801 3.72656 19.3066 3.83594C19.5371 3.94531 19.7324 4.09961 19.8926 4.29883C20.0566 4.49414 20.1816 4.72852 20.2676 5.00195C20.3574 5.27148 20.4023 5.56641 20.4023 5.88672V10H19.2891V5.99219C19.2891 5.76562 19.2559 5.56641 19.1895 5.39453C19.127 5.21875 19.0391 5.07422 18.9258 4.96094C18.8125 4.84375 18.6777 4.75586 18.5215 4.69727C18.3652 4.63867 18.1953 4.60938 18.0117 4.60938C17.6875 4.60938 17.3809 4.69531 17.0918 4.86719C16.8027 5.03906 16.5078 5.26562 16.207 5.54688V10H15.0938V3.78906ZM21.0996 12.8008C21.3848 12.5742 21.6152 12.3281 21.791 12.0625C21.9707 11.8008 22.1094 11.5312 22.207 11.2539C22.3086 10.9766 22.375 10.6953 22.4062 10.4102C22.4414 10.1289 22.459 9.85547 22.459 9.58984V3.78906H23.5723V9.36719C23.5723 9.72656 23.5352 10.0898 23.4609 10.457C23.3867 10.8281 23.2637 11.1855 23.0918 11.5293C22.9238 11.873 22.6992 12.1934 22.418 12.4902C22.1406 12.791 21.7988 13.0508 21.3926 13.2695L21.0996 12.8008ZM23.0156 2.44141C22.918 2.44141 22.8262 2.42383 22.7402 2.38867C22.6543 2.35352 22.5801 2.30469 22.5176 2.24219C22.4551 2.17969 22.4062 2.10742 22.3711 2.02539C22.3359 1.93945 22.3184 1.8457 22.3184 1.74414C22.3184 1.64258 22.3379 1.54687 22.377 1.45703C22.416 1.36719 22.4668 1.28906 22.5293 1.22266C22.5957 1.15625 22.6719 1.10547 22.7578 1.07031C22.8477 1.03125 22.9414 1.01172 23.0391 1.01172C23.1328 1.01172 23.2207 1.03125 23.3027 1.07031C23.3887 1.10547 23.4629 1.15625 23.5254 1.22266C23.5879 1.28906 23.6367 1.36719 23.6719 1.45703C23.707 1.54297 23.7246 1.63477 23.7246 1.73242C23.7246 1.83789 23.7051 1.93555 23.666 2.02539C23.627 2.11133 23.5742 2.18555 23.5078 2.24805C23.4453 2.30664 23.3711 2.35352 23.2852 2.38867C23.1992 2.42383 23.1094 2.44141 23.0156 2.44141ZM28.9922 9.07422C28.8945 9.15625 28.7754 9.25781 28.6348 9.37891C28.498 9.49609 28.3418 9.60938 28.166 9.71875C27.9941 9.82812 27.8047 9.92188 27.5977 10C27.3945 10.0781 27.1777 10.1172 26.9473 10.1172C26.7402 10.1172 26.5371 10.0801 26.3379 10.0059C26.1426 9.93555 25.9688 9.83008 25.8164 9.68945C25.6641 9.54492 25.541 9.36719 25.4473 9.15625C25.3574 8.94531 25.3125 8.70312 25.3125 8.42969C25.3125 8.26172 25.332 8.0918 25.3711 7.91992C25.4141 7.74805 25.4844 7.58398 25.582 7.42773C25.6797 7.26758 25.8066 7.11914 25.9629 6.98242C26.123 6.8418 26.3184 6.7207 26.5488 6.61914C26.7832 6.51367 27.0586 6.43164 27.375 6.37305C27.6914 6.31445 28.0547 6.28516 28.4648 6.28516H28.9922V5.74609C28.9922 5.56641 28.9609 5.4043 28.8984 5.25977C28.8359 5.11523 28.748 4.99219 28.6348 4.89062C28.5254 4.78516 28.3926 4.70508 28.2363 4.65039C28.084 4.5918 27.9141 4.5625 27.7266 4.5625C27.5859 4.5625 27.4355 4.57812 27.2754 4.60938C27.1191 4.64062 26.9609 4.68555 26.8008 4.74414C26.6445 4.80273 26.4941 4.87109 26.3496 4.94922C26.2051 5.02734 26.0781 5.11328 25.9688 5.20703L25.8633 5.14844L25.6289 4.29297C25.8555 4.16797 26.0742 4.06641 26.2852 3.98828C26.4961 3.90625 26.6973 3.8418 26.8887 3.79492C27.084 3.74805 27.2695 3.7168 27.4453 3.70117C27.6211 3.68164 27.7891 3.67188 27.9492 3.67188C28.6797 3.67188 29.2207 3.82422 29.5723 4.12891C29.9277 4.42969 30.1055 4.88281 30.1055 5.48828V8.54688C30.1055 8.59766 30.1094 8.66016 30.1172 8.73438C30.125 8.80469 30.1426 8.87305 30.1699 8.93945C30.2012 9.00586 30.2441 9.0625 30.2988 9.10938C30.3574 9.15625 30.4355 9.17969 30.5332 9.17969C30.5879 9.17969 30.6602 9.17188 30.75 9.15625C30.8398 9.13672 30.9297 9.10547 31.0195 9.0625V9.68359C30.832 9.8125 30.6426 9.91797 30.4512 10C30.2637 10.0781 30.082 10.1172 29.9062 10.1172C29.7461 10.1172 29.6133 10.084 29.5078 10.0176C29.4062 9.95508 29.3203 9.87305 29.25 9.77148C29.1836 9.66992 29.1309 9.55859 29.0918 9.4375C29.0527 9.3125 29.0195 9.19141 28.9922 9.07422ZM28.9922 6.96484H28.5469C28.0898 6.96484 27.7246 6.99805 27.4512 7.06445C27.1816 7.12695 26.9746 7.21289 26.8301 7.32227C26.6895 7.42773 26.5957 7.55078 26.5488 7.69141C26.5059 7.83203 26.4844 7.97852 26.4844 8.13086C26.4844 8.29492 26.5078 8.44141 26.5547 8.57031C26.6016 8.69922 26.666 8.81055 26.748 8.9043C26.834 8.99414 26.9355 9.0625 27.0527 9.10938C27.1699 9.15625 27.2969 9.17969 27.4336 9.17969C27.5391 9.17969 27.6465 9.16797 27.7559 9.14453C27.8691 9.11719 27.9883 9.07227 28.1133 9.00977C28.2422 8.94336 28.377 8.85547 28.5176 8.74609C28.6621 8.63672 28.8203 8.49609 28.9922 8.32422V6.96484ZM32.3789 3.78906H33.2461L33.4219 5.65234C33.4727 5.55469 33.5254 5.45508 33.5801 5.35352C33.6387 5.24805 33.6953 5.14648 33.75 5.04883C33.8086 4.95117 33.8652 4.85938 33.9199 4.77344C33.9746 4.6875 34.0234 4.61328 34.0664 4.55078C34.1523 4.42969 34.248 4.31641 34.3535 4.21094C34.4629 4.10156 34.5801 4.00781 34.7051 3.92969C34.8301 3.84766 34.9629 3.78516 35.1035 3.74219C35.2441 3.69531 35.3945 3.67188 35.5547 3.67188C35.668 3.67188 35.7754 3.68555 35.877 3.71289C35.9785 3.73633 36.0625 3.77734 36.1289 3.83594L36.0117 4.87891C35.9414 4.85938 35.8711 4.84766 35.8008 4.84375C35.7344 4.83594 35.668 4.83203 35.6016 4.83203C35.3242 4.83203 35.082 4.87695 34.875 4.9668C34.6719 5.05664 34.4883 5.17969 34.3242 5.33594C34.1641 5.48828 34.0176 5.66797 33.8848 5.875C33.7559 6.08203 33.625 6.30469 33.4922 6.54297V10H32.3789V3.78906ZM37.5117 0.613281H38.625V4.79688C38.8047 4.63281 38.9824 4.48242 39.1582 4.3457C39.334 4.20898 39.5137 4.0918 39.6973 3.99414C39.8848 3.89258 40.0762 3.81445 40.2715 3.75977C40.4668 3.70117 40.6738 3.67188 40.8926 3.67188C41.2754 3.67188 41.6172 3.75586 41.918 3.92383C42.2227 4.08789 42.4785 4.30859 42.6855 4.58594C42.8965 4.86328 43.0566 5.18359 43.166 5.54688C43.2793 5.90625 43.3359 6.28125 43.3359 6.67188C43.3359 7.14844 43.2539 7.5957 43.0898 8.01367C42.9258 8.43164 42.6855 8.79688 42.3691 9.10938C42.0527 9.41797 41.6641 9.66406 41.2031 9.84766C40.7461 10.0273 40.2246 10.1172 39.6387 10.1172C39.3301 10.1172 38.9922 10.0879 38.625 10.0293C38.2617 9.9707 37.8906 9.87109 37.5117 9.73047V0.613281ZM38.625 8.92188C38.8594 9.02734 39.0938 9.10547 39.3281 9.15625C39.5664 9.20312 39.7891 9.22656 39.9961 9.22656C40.3555 9.22656 40.6699 9.16211 40.9395 9.0332C41.2129 8.9043 41.4395 8.73242 41.6191 8.51758C41.8027 8.29883 41.9395 8.04883 42.0293 7.76758C42.1191 7.48633 42.1641 7.19141 42.1641 6.88281C42.1641 6.59766 42.125 6.32031 42.0469 6.05078C41.9727 5.77734 41.8613 5.53516 41.7129 5.32422C41.5645 5.10938 41.3828 4.9375 41.168 4.80859C40.9531 4.67578 40.7051 4.60938 40.4238 4.60938C40.1738 4.60938 39.8984 4.67578 39.5977 4.80859C39.3008 4.94141 38.9766 5.18359 38.625 5.53516V8.92188ZM49.9102 9.47266C49.7617 9.57812 49.5898 9.67188 49.3945 9.75391C49.2031 9.83203 49.0039 9.89844 48.7969 9.95312C48.5898 10.0078 48.3809 10.0488 48.1699 10.0762C47.9629 10.1035 47.7695 10.1172 47.5898 10.1172C47.1914 10.1172 46.8125 10.0508 46.4531 9.91797C46.0938 9.78516 45.7793 9.58984 45.5098 9.33203C45.2402 9.07422 45.0254 8.75586 44.8652 8.37695C44.7051 7.99414 44.625 7.55469 44.625 7.05859C44.625 6.54688 44.709 6.08203 44.877 5.66406C45.0488 5.24609 45.2773 4.89062 45.5625 4.59766C45.8477 4.30078 46.1758 4.07227 46.5469 3.91211C46.9219 3.75195 47.3145 3.67188 47.7246 3.67188C48.0566 3.67188 48.3652 3.72852 48.6504 3.8418C48.9395 3.95117 49.1895 4.11719 49.4004 4.33984C49.6152 4.5625 49.7832 4.8418 49.9043 5.17773C50.0254 5.50977 50.0859 5.89844 50.0859 6.34375C50.0859 6.43359 50.082 6.54102 50.0742 6.66602C50.0664 6.79102 50.0508 6.92188 50.0273 7.05859H45.7852C45.7852 7.39453 45.8438 7.69531 45.9609 7.96094C46.082 8.22266 46.25 8.44531 46.4648 8.62891C46.6836 8.80859 46.9434 8.94531 47.2441 9.03906C47.5449 9.13281 47.877 9.17969 48.2402 9.17969C48.3301 9.17969 48.4395 9.17578 48.5684 9.16797C48.6973 9.16016 48.8359 9.14453 48.9844 9.12109C49.1328 9.09766 49.2871 9.06445 49.4473 9.02148C49.6074 8.97461 49.7617 8.91406 49.9102 8.83984V9.47266ZM49.0312 6.36719C49.0312 6.07422 48.9902 5.81641 48.9082 5.59375C48.8262 5.36719 48.7148 5.17773 48.5742 5.02539C48.4336 4.87305 48.2695 4.75781 48.082 4.67969C47.8984 4.60156 47.7012 4.5625 47.4902 4.5625C47.2559 4.5625 47.0352 4.61133 46.8281 4.70898C46.6211 4.80273 46.4395 4.93164 46.2832 5.0957C46.1309 5.25977 46.0098 5.45117 45.9199 5.66992C45.8301 5.88867 45.7852 6.12109 45.7852 6.36719H49.0312ZM51.8203 0.613281H52.9336V10H51.8203V0.613281ZM55.875 10L53.332 6.68359L55.8398 3.78906H57.0469L54.4922 6.5957L57.2578 10H55.875ZM58.3477 4.09375C58.4805 3.94922 58.6055 3.79688 58.7227 3.63672C58.8438 3.47656 58.9512 3.31445 59.0449 3.15039C59.1387 2.98633 59.2188 2.82617 59.2852 2.66992C59.3516 2.51367 59.3984 2.36719 59.4258 2.23047C59.3828 2.19141 59.3281 2.15039 59.2617 2.10742C59.1992 2.06055 59.1309 2.01758 59.0566 1.97852C58.9824 1.93945 58.9062 1.90625 58.8281 1.87891C58.75 1.84766 58.6758 1.82422 58.6055 1.80859C58.5742 1.75391 58.5527 1.68945 58.541 1.61523C58.5293 1.54102 58.5234 1.47656 58.5234 1.42188C58.5234 1.32812 58.541 1.23047 58.5762 1.12891C58.6152 1.02734 58.6699 0.933594 58.7402 0.847656C58.8105 0.761719 58.8984 0.691406 59.0039 0.636719C59.1133 0.582031 59.2383 0.554688 59.3789 0.554688C59.4883 0.554688 59.5957 0.576172 59.7012 0.619141C59.8105 0.658203 59.9082 0.722656 59.9941 0.8125C60.0801 0.902344 60.1484 1.01953 60.1992 1.16406C60.2539 1.30469 60.2812 1.47656 60.2812 1.67969C60.2812 1.86719 60.252 2.06836 60.1934 2.2832C60.1348 2.49805 60.041 2.7207 59.9121 2.95117C59.7871 3.17773 59.625 3.41016 59.4258 3.64844C59.2266 3.88281 58.9883 4.11719 58.7109 4.35156L58.3477 4.09375ZM61.3125 8.78125L61.418 8.71094C61.5664 8.79297 61.7227 8.86719 61.8867 8.93359C62.0508 8.99609 62.2129 9.04883 62.373 9.0918C62.5332 9.13477 62.6895 9.16797 62.8418 9.19141C62.998 9.21484 63.1426 9.22656 63.2754 9.22656C63.459 9.22656 63.627 9.20508 63.7793 9.16211C63.9316 9.11914 64.0605 9.05859 64.166 8.98047C64.2754 8.90234 64.3594 8.80859 64.418 8.69922C64.4805 8.58984 64.5117 8.46875 64.5117 8.33594C64.5117 8.16797 64.4648 8.0293 64.3711 7.91992C64.2773 7.80664 64.1543 7.71094 64.002 7.63281C63.8496 7.55078 63.6758 7.48047 63.4805 7.42188C63.2852 7.36328 63.0859 7.30273 62.8828 7.24023C62.6797 7.17773 62.4805 7.10742 62.2852 7.0293C62.0898 6.95117 61.916 6.85352 61.7637 6.73633C61.6113 6.61523 61.4883 6.4707 61.3945 6.30273C61.3008 6.13086 61.2539 5.92188 61.2539 5.67578C61.2539 5.40234 61.3145 5.14453 61.4355 4.90234C61.5566 4.65625 61.7266 4.44336 61.9453 4.26367C62.1641 4.08008 62.4258 3.93555 62.7305 3.83008C63.0391 3.72461 63.3809 3.67188 63.7559 3.67188C63.8457 3.67188 63.9531 3.67578 64.0781 3.68359C64.2031 3.69141 64.3359 3.70508 64.4766 3.72461C64.6172 3.74023 64.7598 3.76367 64.9043 3.79492C65.0527 3.82227 65.1953 3.85742 65.332 3.90039L65.0977 4.81445L64.957 4.89648C64.8477 4.83789 64.7266 4.78711 64.5938 4.74414C64.4648 4.70117 64.332 4.66797 64.1953 4.64453C64.0625 4.61719 63.9316 4.59766 63.8027 4.58594C63.6738 4.57031 63.5605 4.5625 63.4629 4.5625C63.2832 4.5625 63.1191 4.58203 62.9707 4.62109C62.8262 4.66016 62.7012 4.7168 62.5957 4.79102C62.4902 4.86133 62.4082 4.94922 62.3496 5.05469C62.291 5.15625 62.2617 5.27344 62.2617 5.40625C62.2617 5.57812 62.3086 5.7207 62.4023 5.83398C62.4961 5.94727 62.6211 6.04492 62.7773 6.12695C62.9336 6.20508 63.1094 6.27344 63.3047 6.33203C63.5039 6.39062 63.707 6.45117 63.9141 6.51367C64.1211 6.57617 64.3223 6.64648 64.5176 6.72461C64.7168 6.80273 64.8945 6.90234 65.0508 7.02344C65.207 7.14453 65.332 7.29297 65.4258 7.46875C65.5195 7.64062 65.5664 7.85156 65.5664 8.10156C65.5664 8.39453 65.5 8.66406 65.3672 8.91016C65.2383 9.15625 65.0586 9.36914 64.8281 9.54883C64.6016 9.72852 64.334 9.86914 64.0254 9.9707C63.7207 10.0684 63.3926 10.1172 63.041 10.1172C62.7402 10.1172 62.418 10.082 62.0742 10.0117C61.7344 9.94141 61.4023 9.84375 61.0781 9.71875L61.3125 8.78125ZM73.998 5.26562C74.2363 5.33203 74.4609 5.42578 74.6719 5.54688C74.8867 5.66797 75.0742 5.8125 75.2344 5.98047C75.3945 6.14453 75.5215 6.33398 75.6152 6.54883C75.7129 6.75977 75.7617 6.99023 75.7617 7.24023C75.7617 7.43945 75.7285 7.64648 75.6621 7.86133C75.5996 8.07617 75.5039 8.28711 75.375 8.49414C75.2461 8.69727 75.0859 8.89062 74.8945 9.07422C74.7031 9.25391 74.4805 9.41406 74.2266 9.55469C73.9727 9.69141 73.6875 9.80078 73.3711 9.88281C73.0586 9.96094 72.7148 10 72.3398 10H70.1367V1.41602H72.5508C73.0234 1.41602 73.4355 1.4707 73.7871 1.58008C74.1387 1.68945 74.4316 1.83203 74.666 2.00781C74.9004 2.18359 75.0762 2.38281 75.1934 2.60547C75.3105 2.82812 75.3691 3.05469 75.3691 3.28516C75.3691 3.48047 75.3301 3.67383 75.252 3.86523C75.1738 4.05273 75.0703 4.23242 74.9414 4.4043C74.8164 4.57227 74.6719 4.73047 74.5078 4.87891C74.3438 5.02344 74.1738 5.15234 73.998 5.26562ZM71.2852 9.0918H72.4688C72.8594 9.0918 73.1875 9.04297 73.4531 8.94531C73.7188 8.84375 73.9336 8.71484 74.0977 8.55859C74.2617 8.39844 74.3789 8.2207 74.4492 8.02539C74.5195 7.82617 74.5547 7.62695 74.5547 7.42773C74.5547 7.17773 74.5039 6.96289 74.4023 6.7832C74.3047 6.59961 74.1641 6.44922 73.9805 6.33203C73.7969 6.21094 73.5762 6.12109 73.3184 6.0625C73.0605 6.00391 72.7734 5.97461 72.457 5.97461H71.2852V9.0918ZM73.3008 5.06641C73.582 4.87109 73.8047 4.65234 73.9688 4.41016C74.1367 4.16797 74.2207 3.90039 74.2207 3.60742C74.2207 3.21289 74.0605 2.90039 73.7402 2.66992C73.4199 2.43945 72.957 2.32422 72.3516 2.32422H71.2852V5.06641H73.3008ZM77.4961 0.613281H78.6094V10H77.4961V0.613281ZM83.1914 10.1172C82.7305 10.1172 82.3203 10.0352 81.9609 9.87109C81.6016 9.70703 81.2969 9.48633 81.0469 9.20898C80.8008 8.93164 80.6113 8.60938 80.4785 8.24219C80.3496 7.87109 80.2852 7.48047 80.2852 7.07031C80.2852 6.60156 80.3672 6.16211 80.5312 5.75195C80.6992 5.33789 80.9297 4.97656 81.2227 4.66797C81.5195 4.35938 81.8711 4.11719 82.2773 3.94141C82.6836 3.76172 83.125 3.67188 83.6016 3.67188C84.0664 3.67188 84.4805 3.75586 84.8438 3.92383C85.207 4.08789 85.5117 4.31055 85.7578 4.5918C86.0078 4.87305 86.1973 5.19922 86.3262 5.57031C86.4551 5.9375 86.5195 6.32422 86.5195 6.73047C86.5195 7.20312 86.4355 7.64648 86.2676 8.06055C86.0996 8.4707 85.8672 8.82812 85.5703 9.13281C85.2734 9.4375 84.9219 9.67773 84.5156 9.85352C84.1094 10.0293 83.668 10.1172 83.1914 10.1172ZM83.4375 9.22656C83.7227 9.22656 83.9805 9.16992 84.2109 9.05664C84.4453 8.93945 84.6445 8.78125 84.8086 8.58203C84.9766 8.38281 85.1055 8.14844 85.1953 7.87891C85.2891 7.60547 85.3359 7.3125 85.3359 7C85.3359 6.69141 85.291 6.39258 85.2012 6.10352C85.1113 5.81055 84.9805 5.55078 84.8086 5.32422C84.6406 5.09375 84.4336 4.91016 84.1875 4.77344C83.9414 4.63281 83.6641 4.5625 83.3555 4.5625C83.0703 4.5625 82.8105 4.62109 82.5762 4.73828C82.3457 4.85156 82.1465 5.00977 81.9785 5.21289C81.8145 5.41211 81.6855 5.64844 81.5918 5.92188C81.502 6.19531 81.457 6.48828 81.457 6.80078C81.457 7.10938 81.502 7.41016 81.5918 7.70312C81.6816 7.99219 81.8105 8.25 81.9785 8.47656C82.1504 8.70312 82.3574 8.88477 82.5996 9.02148C82.8457 9.1582 83.125 9.22656 83.4375 9.22656ZM89.8242 10.3516C89.7227 10.4023 89.6133 10.4648 89.4961 10.5391C89.3828 10.6133 89.2773 10.6953 89.1797 10.7852C89.082 10.8789 89 10.9805 88.9336 11.0898C88.8672 11.2031 88.834 11.3203 88.834 11.4414C88.834 11.5664 88.8711 11.6836 88.9453 11.793C89.0234 11.9062 89.1348 12.0039 89.2793 12.0859C89.4277 12.168 89.6094 12.2324 89.8242 12.2793C90.0391 12.3301 90.2852 12.3555 90.5625 12.3555C90.8789 12.3555 91.1621 12.3242 91.4121 12.2617C91.6621 12.1992 91.873 12.1133 92.0449 12.0039C92.2168 11.8945 92.3477 11.7676 92.4375 11.623C92.5273 11.4824 92.5723 11.332 92.5723 11.1719C92.5723 11.0273 92.5371 10.9023 92.4668 10.7969C92.3965 10.6953 92.3008 10.6113 92.1797 10.5449C92.0625 10.4785 91.9238 10.4297 91.7637 10.3984C91.6074 10.3672 91.4434 10.3516 91.2715 10.3516H89.8242ZM89.0215 10.2344C88.9004 10.1953 88.7871 10.1465 88.6816 10.0879C88.5762 10.0293 88.4844 9.96484 88.4062 9.89453C88.3281 9.82031 88.2656 9.73828 88.2188 9.64844C88.1758 9.55469 88.1543 9.45508 88.1543 9.34961C88.1543 9.2207 88.1855 9.09961 88.248 8.98633C88.3145 8.86914 88.3984 8.75781 88.5 8.65234C88.6055 8.54297 88.7227 8.44141 88.8516 8.34766C88.9844 8.25 89.1191 8.15625 89.2559 8.06641C88.8223 7.85547 88.5039 7.57812 88.3008 7.23438C88.1016 6.89062 88.002 6.51758 88.002 6.11523C88.002 5.86523 88.0371 5.63086 88.1074 5.41211C88.1816 5.19336 88.2832 4.99414 88.4121 4.81445C88.541 4.63086 88.6914 4.46875 88.8633 4.32812C89.0352 4.1875 89.2207 4.06836 89.4199 3.9707C89.6191 3.87305 89.8262 3.79883 90.041 3.74805C90.2598 3.69727 90.4766 3.67188 90.6914 3.67188C90.9492 3.67188 91.1992 3.70508 91.4414 3.77148C91.6836 3.83789 91.8867 3.92383 92.0508 4.0293C92.1133 3.99414 92.1895 3.96094 92.2793 3.92969C92.373 3.89844 92.4707 3.87305 92.5723 3.85352C92.6738 3.83398 92.7754 3.81836 92.877 3.80664C92.9824 3.79492 93.0801 3.78906 93.1699 3.78906H94.2246L93.9902 4.66797H92.6074C92.6348 4.68359 92.6738 4.72852 92.7246 4.80273C92.7793 4.87305 92.832 4.9668 92.8828 5.08398C92.9375 5.19727 92.9844 5.33008 93.0234 5.48242C93.0664 5.63477 93.0879 5.79688 93.0879 5.96875C93.0879 6.28516 93.0117 6.58398 92.8594 6.86523C92.7109 7.14258 92.5137 7.38477 92.2676 7.5918C92.0254 7.79883 91.7461 7.96289 91.4297 8.08398C91.1172 8.20508 90.7969 8.26562 90.4688 8.26562C90.3828 8.26562 90.2969 8.26172 90.2109 8.25391C90.125 8.24609 90.0332 8.23633 89.9355 8.22461C89.8652 8.26758 89.7891 8.31641 89.707 8.37109C89.6289 8.42578 89.5566 8.48633 89.4902 8.55273C89.4277 8.61523 89.375 8.68359 89.332 8.75781C89.2891 8.82812 89.2676 8.90234 89.2676 8.98047C89.2676 9.10547 89.3242 9.20703 89.4375 9.28516C89.5547 9.36328 89.7129 9.40234 89.9121 9.40234H91.5703C91.8516 9.40234 92.1172 9.43945 92.3672 9.51367C92.6172 9.58398 92.834 9.6875 93.0176 9.82422C93.2051 9.95703 93.3535 10.1172 93.4629 10.3047C93.5723 10.4922 93.627 10.6992 93.627 10.9258C93.627 11.1914 93.5508 11.4609 93.3984 11.7344C93.2461 12.0117 93.0254 12.2637 92.7363 12.4902C92.4473 12.7168 92.0918 12.9004 91.6699 13.041C91.252 13.1855 90.7734 13.2578 90.2344 13.2578C89.8789 13.2578 89.5469 13.2246 89.2383 13.1582C88.9336 13.0918 88.668 12.998 88.4414 12.877C88.2188 12.7559 88.043 12.6094 87.9141 12.4375C87.7852 12.2656 87.7207 12.0742 87.7207 11.8633C87.7207 11.7344 87.7441 11.6094 87.791 11.4883C87.8418 11.3672 87.9043 11.2539 87.9785 11.1484C88.0566 11.043 88.1426 10.9434 88.2363 10.8496C88.334 10.7559 88.4297 10.6699 88.5234 10.5918C88.6211 10.5176 88.7129 10.4492 88.7988 10.3867C88.8887 10.3281 88.9629 10.2773 89.0215 10.2344ZM89.0566 5.93359C89.0566 6.14453 89.0938 6.3418 89.168 6.52539C89.2422 6.70898 89.3438 6.86914 89.4727 7.00586C89.6055 7.13867 89.7637 7.24414 89.9473 7.32227C90.1309 7.39648 90.332 7.43359 90.5508 7.43359C90.7578 7.43359 90.9512 7.39844 91.1309 7.32812C91.3105 7.25781 91.4668 7.16016 91.5996 7.03516C91.7363 6.91016 91.8418 6.75977 91.916 6.58398C91.9941 6.4043 92.0332 6.20508 92.0332 5.98633C92.0332 5.77539 91.9961 5.58008 91.9219 5.40039C91.8477 5.2168 91.7441 5.06055 91.6113 4.93164C91.4785 4.79883 91.3203 4.69531 91.1367 4.62109C90.9531 4.54297 90.752 4.50391 90.5332 4.50391C90.3262 4.50391 90.1328 4.53906 89.9531 4.60938C89.7773 4.67578 89.6211 4.77148 89.4844 4.89648C89.3516 5.01758 89.2461 5.16797 89.168 5.34766C89.0938 5.52344 89.0566 5.71875 89.0566 5.93359Z" fill="#DBE8D4"/>
</svg>
